<svg xmlns="http://www.w3.org/2000/svg" viewBox="0 0 100 100" width="100" height="100">
  <defs>
    <linearGradient id="grad" x1="0%" y1="0%" x2="100%" y2="100%">
      <stop offset="0%" style="stop-color:#2dd4bf;stop-opacity:1" />
      <stop offset="100%" style="stop-color:#5eead4;stop-opacity:1" />
    </linearGradient>
    <linearGradient id="shine" x1="0%" y1="0%" x2="100%" y2="100%">
      <stop offset="0%" style="stop-color:rgba(255,255,255,0.2);stop-opacity:1" />
      <stop offset="100%" style="stop-color:rgba(255,255,255,0);stop-opacity:1" />
    </linearGradient>
  </defs>
  <!-- Shield shape -->
  <path d="M50 5 L90 20 L90 50 C90 75 70 90 50 95 C30 90 10 75 10 50 L10 20 Z"
        fill="url(#grad)" stroke="#14b8a6" stroke-width="2"/>
  <!-- Shine overlay -->
  <path d="M50 5 L90 20 L90 50 C90 75 70 90 50 95 C30 90 10 75 10 50 L10 20 Z"
        fill="url(#shine)"/>
  <!-- Checkmark -->
  <path d="M30 50 L45 65 L70 35"
        fill="none" stroke="white" stroke-width="8" stroke-linecap="round" stroke-linejoin="round"/>
  <!-- Coverage bar background -->
  <rect x="25" y="75" width="50" height="6" rx="3" fill="rgba(255,255,255,0.25)"/>
  <!-- Coverage bar filled -->
  <rect x="25" y="75" width="40" height="6" rx="3" fill="white"/>
</svg>
